<svg xmlns="http://www.w3.org/2000/svg" viewBox="0 0 16 16" width="16" height="16">
  <defs>
    <linearGradient id="g" x1="0" y1="0" x2="1" y2="1">
      <stop offset="0" stop-color="#7FE0C4"/>
      <stop offset="0.5" stop-color="#3FCFAA"/>
      <stop offset="1" stop-color="#1DBF9A"/>
    </linearGradient>
  </defs>
  <g transform="translate(0.4303 0.4728) scale(0.0121212)">
    <circle cx="624.5" cy="621" r="577.5" fill="url(#g)"/>
    <path d="M881 385 C880.1 385.7 879.2 386.4 878.2 387.2 C865.1 397.7 853.2 409.7 841.2 421.6 C838.7 424.2 836.1 426.8 833.5 429.3 C831.9 431 830.2 432.6 828.6 434.3 C827.8 435 827.1 435.8 826.3 436.6 C821.7 441.2 817.3 446 813 451 C810.8 453.3 808.7 455.7 806.5 458 C800.9 464 795.5 470 790.2 476.2 C781 487 781 487 776.3 492.2 C772.5 496.4 768.9 500.8 765.2 505.3 C763.1 507.9 760.8 510.5 758.5 513 C754.7 517.2 751 521.6 747.4 526 C744.7 529.4 741.8 532.7 739 536 C733.9 541.9 728.9 547.9 724 554 C722.5 555.8 721 557.7 719.5 559.5 C718.8 560.4 718 561.3 717.2 562.3 C715.8 564 714.3 565.8 712.9 567.6 C710.6 570.4 708.3 573.2 706 576 C705 577.2 704 578.5 702.9 579.8 C696.8 587.3 690.8 594.8 684.8 602.4 C681.7 606.3 678.6 610.2 675.5 614 C670.4 620.2 665.4 626.5 660.5 632.8 C657.6 636.4 654.8 640 651.9 643.6 C650.6 645.2 649.3 646.9 648 648.5 C628.7 673 608.3 688 576 686 C561.3 683.5 549.4 676.4 539 666 C538.3 665.3 537.6 664.7 536.9 664 C533 660.1 529.1 656.3 525.3 652.4 C524.6 651.7 524 651.1 523.3 650.4 C521.5 648.5 519.7 646.5 518 644.5 C509.6 634.8 500.3 625.9 491.3 616.8 C488.8 614.3 486.3 611.8 483.9 609.2 C480.3 605.6 476.7 601.9 473.1 598.3 C472.6 597.8 472.6 597.8 469.9 594.9 C450.5 575.7 426.5 571.2 400.4 577.6 C369.3 587.4 345.5 611.8 337.9 643.7 C331.4 682.3 347.6 709.9 374 736.1 C375.2 737.3 376.4 738.5 377.6 739.7 C380.1 742.2 382.6 744.7 385.1 747.2 C389.1 751.2 393.1 755.2 397.1 759.2 C405.6 767.6 414 776.1 422.5 784.5 C432.3 794.3 442.2 804.1 452 813.9 C455.9 817.9 459.9 821.8 463.8 825.7 C466.2 828.1 468.6 830.5 471 832.9 C471.6 833.5 471.6 833.5 474.4 836.2 C475.4 837.2 476.4 838.2 477.4 839.3 C478.3 840.1 479.1 841 480 841.9 C482 844 482 844 483 846 C483.7 846 484.3 846 485 846 C485.7 847.3 486.3 848.6 487 850 C488.8 852 490.6 853.9 492.4 855.7 C493 856.3 493 856.3 495.9 859.2 C496.5 859.9 496.5 859.9 499.6 863 C500.9 864.3 502.2 865.6 503.5 866.9 C506.2 869.6 508.9 872.4 511.6 875.1 C515.8 879.2 519.9 883.4 524 887.5 C526.6 890.2 529.3 892.8 531.9 895.5 C532.5 896.1 532.5 896.1 535.6 899.2 C556.4 919.9 580.3 927.2 609 920 C631.2 912.7 643 896.4 656 878 C657 876.6 658 875.2 659 873.8 C665.5 864.6 672 855.3 678.4 846.1 C680.8 842.7 683.2 839.3 685.5 836 C691.3 827.8 697 819.6 702.6 811.3 C707.6 804 712.7 796.8 717.8 789.6 C721.5 784.3 725.2 779 728.9 773.7 C735.1 764.7 741.3 755.8 747.6 746.9 C749.9 743.6 752.2 740.3 754.5 736.9 C760.1 728.9 765.8 720.9 771.6 712.9 C776 706.8 780.3 700.6 784.6 694.4 C789.5 687.1 794.7 680.1 800 673.1 C803.3 668.6 806.4 664.1 809.5 659.5 C814.5 652.1 819.7 645 825 637.9 C828.1 633.9 831 629.8 833.9 625.7 C839.3 618 844.9 610.3 850.5 602.8 C856.1 595.2 861.5 587.6 867 580 C879 563.4 891.1 546.9 903.4 530.5 C907.7 524.8 911.9 519.1 916.1 513.3 C921.6 505.8 927.2 498.5 932.9 491.1 C936.9 485.8 940.9 480.5 944.8 475.2 C947.1 472.2 949.4 469.2 951.7 466.1 C994.8 409 994.8 409 985 381 C978 366.5 965.6 359 949.7 357.6 C923.9 356.9 900.7 369.2 881 385 Z" fill="#FFFFFF"/>
  </g>
</svg>
